<?xml version="1.0" encoding="utf-8"?>
<!-- Generator: Adobe Illustrator 24.1.0, SVG Export Plug-In . SVG Version: 6.00 Build 0)  -->
<svg version="1.1" id="Lager_1" xmlns="http://www.w3.org/2000/svg" xmlns:xlink="http://www.w3.org/1999/xlink" x="0px" y="0px"
	 viewBox="0 0 512 512" style="enable-background:new 0 0 512 512;" xml:space="preserve">
<style type="text/css">
	.st0{fill:url(#SVGID_1_);}
	.st1{opacity:0.15;}
	.st2{fill:url(#SVGID_2_);}
</style>
<g>
	<radialGradient id="SVGID_1_" cx="255.5" cy="256.5" r="239.6312" gradientUnits="userSpaceOnUse">
		<stop  offset="0" style="stop-color:#F2CB5F"/>
		<stop  offset="0.1811" style="stop-color:#F2C75F"/>
		<stop  offset="0.3776" style="stop-color:#F2BA5F"/>
		<stop  offset="0.5813" style="stop-color:#F2A460"/>
		<stop  offset="0.7899" style="stop-color:#F28660"/>
		<stop  offset="1" style="stop-color:#F25F61"/>
	</radialGradient>
	<circle class="st0" cx="255.5" cy="256.5" r="239.6"/>
	<path d="M255.5,509C116.3,509,3,395.7,3,256.5S116.3,4,255.5,4S508,117.3,508,256.5S394.7,509,255.5,509z M255.5,29.7
		c-125,0-226.8,101.7-226.8,226.8s101.7,226.8,226.8,226.8s226.8-101.7,226.8-226.8S380.5,29.7,255.5,29.7z"/>
</g>
<rect x="95.2" y="55.3" transform="matrix(0.9891 -0.1476 0.1476 0.9891 -6.406 32.9258)" class="st1" width="247" height="8.6"/>
<rect x="46.2" y="104.6" transform="matrix(0.9893 -0.1457 0.1457 0.9893 -13.3791 35.2087)" class="st1" width="374.9" height="8.6"/>
<rect x="31.9" y="154.4" transform="matrix(0.9891 -0.147 0.147 0.9891 -20.6593 37.9244)" class="st1" width="428.7" height="8.6"/>
<rect x="13.5" y="203.9" transform="matrix(0.9889 -0.1485 0.1485 0.9889 -28.1597 39.285)" class="st1" width="470.9" height="8.6"/>
<rect x="16.2" y="253.4" transform="matrix(0.9893 -0.1457 0.1457 0.9893 -34.8114 40.0612)" class="st1" width="479.6" height="8.6"/>
<rect x="27.7" y="302.8" transform="matrix(0.9889 -0.1485 0.1485 0.9889 -42.7025 42.499)" class="st1" width="470.9" height="8.6"/>
<rect x="53.6" y="352.5" transform="matrix(0.9889 -0.1489 0.1489 0.9889 -50.1461 43.7075)" class="st1" width="426.7" height="8.6"/>
<rect x="93" y="402.1" transform="matrix(0.9887 -0.1502 0.1502 0.9887 -57.8625 46.4195)" class="st1" width="370.9" height="8.6"/>
<rect x="154.2" y="450.5" transform="matrix(0.9891 -0.1476 0.1476 0.9891 -63.9828 47.1576)" class="st1" width="263.3" height="8.6"/>
<path d="M190.7,314.4c-0.5,0-1,0-1.5,0c-0.5,0-1-0.1-1.6-0.2c-0.5-0.1-1.1-0.2-1.6-0.3c-0.5-0.1-1.1-0.2-1.6-0.4
	c-0.5-0.1-1-0.3-1.5-0.5c-0.5-0.2-1-0.4-1.5-0.6c-0.5-0.2-1-0.4-1.5-0.7c-0.5-0.2-1-0.5-1.4-0.8c-0.4-0.3-0.9-0.6-1.4-0.9
	c-0.4-0.3-0.9-0.6-1.3-1c-0.4-0.3-0.8-0.7-1.2-1c-0.4-0.4-0.8-0.7-1.2-1.1c-0.4-0.4-0.7-0.8-1.1-1.2c-0.4-0.4-0.7-0.8-1-1.3
	c-0.3-0.4-0.6-0.9-0.9-1.3c-0.3-0.5-0.6-0.9-0.8-1.4l-40.7-73L80,313.8L56,300l51.9-90.1c0.3-0.5,0.5-0.9,0.8-1.4
	c0.3-0.4,0.6-0.9,0.9-1.3c0.3-0.4,0.7-0.8,1-1.2c0.3-0.4,0.7-0.8,1.1-1.2c0.4-0.4,0.8-0.7,1.2-1.1c0.4-0.4,0.8-0.7,1.3-1
	c0.4-0.3,0.9-0.6,1.3-0.9c0.4-0.3,0.9-0.6,1.4-0.8c0.5-0.3,0.9-0.5,1.4-0.8c0.5-0.2,1-0.4,1.5-0.7c0.5-0.2,1-0.4,1.5-0.6
	c0.5-0.2,1-0.3,1.5-0.5c0.5-0.1,1-0.3,1.6-0.4c0.5-0.1,1.1-0.2,1.6-0.3c0.5-0.1,1.1-0.1,1.6-0.1c0.5,0,1.1,0,1.6,0
	c0.5,0,1.1,0,1.6,0.1c0.5,0,1.1,0.1,1.6,0.2c0.5,0.1,1.1,0.2,1.6,0.3c0.5,0.1,1,0.2,1.5,0.4c0.5,0.1,1,0.3,1.5,0.5
	c0.5,0.2,1,0.4,1.5,0.6c0.5,0.2,1,0.4,1.4,0.7c0.5,0.2,0.9,0.5,1.4,0.8c0.5,0.3,0.9,0.6,1.3,0.9c0.5,0.3,0.9,0.6,1.3,1
	c0.4,0.3,0.8,0.7,1.2,1c0.4,0.4,0.8,0.7,1.2,1.1c0.4,0.4,0.7,0.8,1.1,1.2c0.3,0.4,0.7,0.8,1,1.2c0.3,0.4,0.6,0.9,0.9,1.3
	c0.3,0.4,0.6,0.9,0.8,1.4l40.6,72.8l39.1-72.1c0.2-0.5,0.5-0.9,0.8-1.4c0.3-0.4,0.6-0.9,0.9-1.3c0.3-0.5,0.7-0.9,1-1.3
	c0.3-0.4,0.7-0.8,1.1-1.2c0.3-0.4,0.7-0.7,1.1-1.1c0.4-0.4,0.8-0.7,1.2-1c0.4-0.3,0.9-0.7,1.3-1c0.4-0.3,0.9-0.6,1.3-0.9
	c0.5-0.3,0.9-0.5,1.4-0.8c0.5-0.3,1-0.5,1.5-0.7c0.5-0.2,1-0.4,1.5-0.6c0.5-0.2,1-0.3,1.5-0.5c0.5-0.1,1-0.3,1.6-0.4
	c0.5-0.1,1.1-0.2,1.6-0.3c0.5-0.1,1.1-0.1,1.6-0.2c0.6,0,1.1-0.1,1.6-0.1c0.5,0,1.1,0,1.6,0c0.5,0,1.1,0.1,1.6,0.2
	c0.5,0.1,1.1,0.2,1.6,0.3c0.5,0.1,1.1,0.2,1.6,0.4c0.5,0.1,1.1,0.3,1.6,0.5c0.5,0.2,1,0.4,1.5,0.6c0.5,0.2,1,0.4,1.5,0.7
	c0.5,0.3,1,0.5,1.4,0.8c0.5,0.3,0.9,0.6,1.4,0.9c0.5,0.3,0.9,0.6,1.3,1c0.4,0.3,0.8,0.7,1.2,1c0.4,0.3,0.8,0.7,1.2,1.1
	c0.4,0.4,0.7,0.8,1.1,1.2c0.3,0.4,0.7,0.8,1,1.2c0.3,0.5,0.7,0.9,0.9,1.3c0.3,0.4,0.6,0.9,0.8,1.4l40.1,72l37.9-71.9
	c0.2-0.5,0.5-0.9,0.8-1.4c0.3-0.5,0.6-0.9,0.9-1.3c0.3-0.4,0.6-0.9,1-1.3c0.3-0.4,0.7-0.8,1.1-1.2c0.4-0.4,0.7-0.8,1.1-1.1
	c0.4-0.4,0.8-0.7,1.2-1.1c0.4-0.3,0.8-0.6,1.3-1c0.4-0.3,0.9-0.6,1.4-0.9c0.4-0.3,0.9-0.5,1.4-0.8c0.5-0.3,1-0.5,1.5-0.7
	c0.4-0.2,1-0.4,1.5-0.6c0.5-0.2,1-0.4,1.5-0.5c0.5-0.2,1-0.3,1.6-0.4c0.5-0.1,1-0.2,1.6-0.3c0.5-0.1,1.1-0.2,1.6-0.2
	c0.5,0,1-0.1,1.6-0.1c0.5,0,1.1,0,1.6,0c0.6,0,1.1,0.1,1.6,0.1c0.5,0.1,1,0.1,1.6,0.2c0.6,0.1,1.1,0.2,1.6,0.3
	c0.5,0.1,1,0.3,1.5,0.4c0.5,0.2,1,0.3,1.5,0.5c0.5,0.2,1,0.4,1.5,0.6c0.5,0.2,1,0.5,1.4,0.7c0.5,0.3,0.9,0.5,1.4,0.8
	c0.4,0.3,0.9,0.6,1.3,0.9c0.4,0.3,0.8,0.6,1.3,1c0.4,0.4,0.8,0.7,1.2,1.1c0.4,0.4,0.8,0.8,1.1,1.1c0.4,0.4,0.7,0.8,1,1.2
	c0.3,0.4,0.7,0.9,1,1.3c0.3,0.4,0.6,0.9,0.9,1.4l53.8,89.8l-23.8,14.2L372,229.1l-38,72.1c-0.3,0.5-0.5,1-0.8,1.4
	c-0.3,0.5-0.6,0.9-0.9,1.3c-0.3,0.4-0.6,0.9-1,1.3c-0.3,0.4-0.7,0.8-1.1,1.2c-0.4,0.4-0.8,0.8-1.1,1.1c-0.4,0.4-0.8,0.7-1.2,1.1
	c-0.4,0.3-0.9,0.7-1.3,1c-0.5,0.3-0.9,0.6-1.4,0.9c-0.5,0.3-0.9,0.6-1.4,0.8c-0.5,0.3-1,0.5-1.5,0.7c-0.5,0.2-1,0.4-1.5,0.6
	c-0.5,0.2-1.1,0.4-1.6,0.5c-0.5,0.2-1.1,0.3-1.6,0.4c-0.5,0.1-1.1,0.2-1.6,0.3c-0.5,0.1-1,0.1-1.6,0.2c-0.6,0-1.1,0.1-1.6,0.1
	c-0.5,0-1.1,0-1.6,0c-0.6,0-1.1-0.1-1.6-0.1c-0.5-0.1-1.1-0.1-1.6-0.3c-0.5-0.1-1.1-0.2-1.6-0.4c-0.5-0.1-1-0.3-1.6-0.5
	c-0.5-0.2-1-0.4-1.5-0.6c-0.5-0.2-1-0.4-1.5-0.7c-0.5-0.2-1-0.5-1.4-0.8c-0.4-0.3-0.9-0.6-1.4-0.9c-0.5-0.3-0.9-0.6-1.3-0.9
	c-0.4-0.3-0.8-0.7-1.2-1c-0.4-0.4-0.8-0.7-1.2-1.1c-0.4-0.4-0.8-0.8-1.1-1.2c-0.4-0.4-0.7-0.8-1-1.3c-0.3-0.4-0.6-0.9-0.9-1.3
	c-0.3-0.5-0.6-0.9-0.8-1.4l-40.2-72.1L212,301.7c-0.3,0.5-0.5,0.9-0.8,1.4c-0.3,0.5-0.6,0.9-0.9,1.3c-0.3,0.4-0.7,0.9-1,1.3
	c-0.3,0.4-0.7,0.8-1.1,1.2c-0.4,0.4-0.7,0.8-1.1,1.1l-0.1,0c-0.4,0.4-0.8,0.7-1.2,1c-0.4,0.3-0.9,0.7-1.3,1
	c-0.4,0.3-0.9,0.6-1.3,0.9c-0.5,0.3-0.9,0.5-1.4,0.8c-0.5,0.3-1,0.5-1.5,0.7c-0.5,0.2-1,0.4-1.5,0.6c-0.5,0.2-1,0.3-1.5,0.5
	c-0.5,0.1-1.1,0.3-1.6,0.4c-0.5,0.1-1,0.2-1.6,0.3c-0.5,0.1-1.1,0.1-1.6,0.2c-0.5,0-1.1,0.1-1.6,0.1
	C190.8,314.4,190.8,314.4,190.7,314.4z M315.5,288.2L315.5,288.2C315.5,288.2,315.5,288.2,315.5,288.2z M254.2,224.1L254.2,224.1
	C254.2,224.1,254.2,224.1,254.2,224.1z"/>
<radialGradient id="SVGID_2_" cx="255.5754" cy="255.7451" r="239.6312" gradientUnits="userSpaceOnUse">
	<stop  offset="0" style="stop-color:#F2CB5F;stop-opacity:0"/>
	<stop  offset="0.2775" style="stop-color:#F0C95E;stop-opacity:8.326143e-02"/>
	<stop  offset="0.4172" style="stop-color:#E8C35B;stop-opacity:0.1251"/>
	<stop  offset="0.526" style="stop-color:#DBB856;stop-opacity:0.1578"/>
	<stop  offset="0.619" style="stop-color:#C8A84F;stop-opacity:0.1857"/>
	<stop  offset="0.7019" style="stop-color:#B09345;stop-opacity:0.2106"/>
	<stop  offset="0.7775" style="stop-color:#917A39;stop-opacity:0.2333"/>
	<stop  offset="0.8477" style="stop-color:#6E5C2B;stop-opacity:0.2543"/>
	<stop  offset="0.9136" style="stop-color:#44391B;stop-opacity:0.2741"/>
	<stop  offset="0.9738" style="stop-color:#161309;stop-opacity:0.2921"/>
	<stop  offset="1" style="stop-color:#000000;stop-opacity:0.3"/>
</radialGradient>
<circle class="st2" cx="255.6" cy="255.7" r="239.6"/>
</svg>
