<?xml version="1.0" encoding="utf-8"?>
<!-- Generator: Adobe Illustrator 24.1.0, SVG Export Plug-In . SVG Version: 6.00 Build 0)  -->
<svg version="1.1" id="Layer_1" xmlns="http://www.w3.org/2000/svg" xmlns:xlink="http://www.w3.org/1999/xlink" x="0px" y="0px"
	 viewBox="0 0 535.1 382" style="enable-background:new 0 0 535.1 382;" xml:space="preserve">
<style type="text/css">
	.st0{opacity:0.8;enable-background:new    ;}
</style>
<path class="st0" d="M488.1,272.7L417,140.2L351.2,263c-1.9,3.6-5.6,5.8-9.7,5.8c0,0,0,0,0,0c-4.1,0-7.8-2.2-9.7-5.8l-65.9-122.8
	L200.1,263c-1.9,3.6-5.6,5.8-9.7,5.8c0,0,0,0,0,0c-4.1,0-7.8-2.2-9.7-5.8l-65.9-122.8l-71,132.5l-19.4-10.4l80.7-150.6
	c1.9-3.6,5.6-5.8,9.7-5.8c0,0,0,0,0,0c4.1,0,7.8,2.2,9.7,5.8l65.9,122.8l65.8-122.8c1.9-3.6,5.6-5.8,9.7-5.8c0,0,0,0,0,0
	c4.1,0,7.8,2.2,9.7,5.8l65.9,122.8l65.8-122.8c1.9-3.6,5.6-5.8,9.7-5.8c0,0,0,0,0,0c4.1,0,7.8,2.2,9.7,5.8l80.8,150.6L488.1,272.7z"
	/>
</svg>
