<?xml version="1.0" encoding="utf-8"?>
<!-- Generator: Adobe Illustrator 24.1.0, SVG Export Plug-In . SVG Version: 6.00 Build 0)  -->
<svg version="1.1" id="Layer_1" xmlns="http://www.w3.org/2000/svg" xmlns:xlink="http://www.w3.org/1999/xlink" x="0px" y="0px"
	 viewBox="0 0 535.1 382" style="enable-background:new 0 0 535.1 382;" xml:space="preserve">
<path d="M188.6,267.1c-0.7,0-1.3,0-2,0c-0.7,0-1.3-0.1-2.1-0.3c-0.7-0.1-1.4-0.3-2.1-0.4c-0.7-0.1-1.4-0.3-2.1-0.5
	c-0.7-0.1-1.3-0.4-2-0.7c-0.7-0.3-1.3-0.5-2-0.8c-0.7-0.3-1.3-0.5-2-0.9c-0.7-0.3-1.3-0.7-1.8-1c-0.5-0.4-1.2-0.8-1.8-1.2
	c-0.5-0.4-1.2-0.8-1.7-1.3c-0.5-0.4-1-0.9-1.6-1.3c-0.5-0.5-1-0.9-1.6-1.4c-0.5-0.5-0.9-1-1.4-1.6c-0.5-0.5-0.9-1-1.3-1.7
	c-0.4-0.5-0.8-1.2-1.2-1.7c-0.4-0.7-0.8-1.2-1-1.8L108,155.3l-63.8,111l-31.3-18l67.7-117.5c0.4-0.7,0.7-1.2,1-1.8
	c0.4-0.5,0.8-1.2,1.2-1.7c0.4-0.5,0.9-1,1.3-1.6c0.4-0.5,0.9-1,1.4-1.6c0.5-0.5,1-0.9,1.6-1.4c0.5-0.5,1-0.9,1.7-1.3
	c0.5-0.4,1.2-0.8,1.7-1.2c0.5-0.4,1.2-0.8,1.8-1c0.7-0.4,1.2-0.7,1.8-1c0.7-0.3,1.3-0.5,2-0.9c0.7-0.3,1.3-0.5,2-0.8
	c0.7-0.3,1.3-0.4,2-0.7c0.7-0.1,1.3-0.4,2.1-0.5c0.7-0.1,1.4-0.3,2.1-0.4s1.4-0.1,2.1-0.1s1.4,0,2.1,0s1.4,0,2.1,0.1
	c0.7,0,1.4,0.1,2.1,0.3c0.7,0.1,1.4,0.3,2.1,0.4c0.7,0.1,1.3,0.3,2,0.5c0.7,0.1,1.3,0.4,2,0.7s1.3,0.5,2,0.8
	c0.7,0.3,1.3,0.5,1.8,0.9c0.7,0.3,1.2,0.7,1.8,1c0.7,0.4,1.2,0.8,1.7,1.2c0.7,0.4,1.2,0.8,1.7,1.3c0.5,0.4,1,0.9,1.6,1.3
	c0.5,0.5,1,0.9,1.6,1.4c0.5,0.5,0.9,1,1.4,1.6c0.4,0.5,0.9,1,1.3,1.6c0.4,0.5,0.8,1.2,1.2,1.7c0.4,0.5,0.8,1.2,1,1.8l52.9,94.9
	l51-94c0.3-0.7,0.7-1.2,1-1.8c0.4-0.5,0.8-1.2,1.2-1.7c0.4-0.7,0.9-1.2,1.3-1.7c0.4-0.5,0.9-1,1.4-1.6c0.4-0.5,0.9-0.9,1.4-1.4
	c0.5-0.5,1-0.9,1.6-1.3c0.5-0.4,1.2-0.9,1.7-1.3c0.5-0.4,1.2-0.8,1.7-1.2c0.7-0.4,1.2-0.7,1.8-1c0.7-0.4,1.3-0.7,2-0.9
	c0.7-0.3,1.3-0.5,2-0.8c0.7-0.3,1.3-0.4,2-0.7c0.7-0.1,1.3-0.4,2.1-0.5c0.7-0.1,1.4-0.3,2.1-0.4s1.4-0.1,2.1-0.3
	c0.8,0,1.4-0.1,2.1-0.1s1.4,0,2.1,0c0.7,0,1.4,0.1,2.1,0.3c0.7,0.1,1.4,0.3,2.1,0.4c0.7,0.1,1.4,0.3,2.1,0.5
	c0.7,0.1,1.4,0.4,2.1,0.7c0.7,0.3,1.3,0.5,2,0.8c0.7,0.3,1.3,0.5,2,0.9c0.7,0.4,1.3,0.7,1.8,1c0.7,0.4,1.2,0.8,1.8,1.2
	c0.7,0.4,1.2,0.8,1.7,1.3c0.5,0.4,1,0.9,1.6,1.3c0.5,0.4,1,0.9,1.6,1.4c0.5,0.5,0.9,1,1.4,1.6c0.4,0.5,0.9,1,1.3,1.6
	c0.4,0.7,0.9,1.2,1.2,1.7c0.4,0.5,0.8,1.2,1,1.8l52.3,93.9l49.4-93.8c0.3-0.7,0.7-1.2,1-1.8c0.4-0.7,0.8-1.2,1.2-1.7
	c0.4-0.5,0.8-1.2,1.3-1.7c0.4-0.5,0.9-1,1.4-1.6s0.9-1,1.4-1.4c0.5-0.5,1-0.9,1.6-1.4c0.5-0.4,1-0.8,1.7-1.3
	c0.5-0.4,1.2-0.8,1.8-1.2c0.5-0.4,1.2-0.7,1.8-1c0.7-0.4,1.3-0.7,2-0.9c0.5-0.3,1.3-0.5,2-0.8c0.7-0.3,1.3-0.5,2-0.7
	c0.7-0.3,1.3-0.4,2.1-0.5c0.7-0.1,1.3-0.3,2.1-0.4c0.7-0.1,1.4-0.3,2.1-0.3c0.7,0,1.3-0.1,2.1-0.1c0.7,0,1.4,0,2.1,0
	c0.8,0,1.4,0.1,2.1,0.1c0.7,0.1,1.3,0.1,2.1,0.3c0.8,0.1,1.4,0.3,2.1,0.4c0.7,0.1,1.3,0.4,2,0.5c0.7,0.3,1.3,0.4,2,0.7
	s1.3,0.5,2,0.8c0.7,0.3,1.3,0.7,1.8,0.9c0.7,0.4,1.2,0.7,1.8,1c0.5,0.4,1.2,0.8,1.7,1.2c0.5,0.4,1,0.8,1.7,1.3
	c0.5,0.5,1,0.9,1.6,1.4c0.5,0.5,1,1,1.4,1.4c0.5,0.5,0.9,1,1.3,1.6c0.4,0.5,0.9,1.2,1.3,1.7c0.4,0.5,0.8,1.2,1.2,1.8l70.2,117.1
	l-31,18.5L425,155.9l-49.6,94c-0.4,0.7-0.7,1.3-1,1.8c-0.4,0.7-0.8,1.2-1.2,1.7c-0.4,0.5-0.8,1.2-1.3,1.7c-0.4,0.5-0.9,1-1.4,1.6
	c-0.5,0.5-1,1-1.4,1.4c-0.5,0.5-1,0.9-1.6,1.4c-0.5,0.4-1.2,0.9-1.7,1.3c-0.7,0.4-1.2,0.8-1.8,1.2c-0.7,0.4-1.2,0.8-1.8,1
	c-0.7,0.4-1.3,0.7-2,0.9c-0.7,0.3-1.3,0.5-2,0.8c-0.7,0.3-1.4,0.5-2.1,0.7c-0.7,0.3-1.4,0.4-2.1,0.5c-0.7,0.1-1.4,0.3-2.1,0.4
	c-0.7,0.1-1.3,0.1-2.1,0.3c-0.8,0-1.4,0.1-2.1,0.1c-0.7,0-1.4,0-2.1,0c-0.8,0-1.4-0.1-2.1-0.1c-0.7-0.1-1.4-0.1-2.1-0.4
	c-0.7-0.1-1.4-0.3-2.1-0.5c-0.7-0.1-1.3-0.4-2.1-0.7c-0.7-0.3-1.3-0.5-2-0.8c-0.7-0.3-1.3-0.5-2-0.9c-0.7-0.3-1.3-0.7-1.8-1
	c-0.5-0.4-1.2-0.8-1.8-1.2c-0.7-0.4-1.2-0.8-1.7-1.2s-1-0.9-1.6-1.3c-0.5-0.5-1-0.9-1.6-1.4c-0.5-0.5-1-1-1.4-1.6
	c-0.5-0.5-0.9-1-1.3-1.7c-0.4-0.5-0.8-1.2-1.2-1.7c-0.4-0.7-0.8-1.2-1-1.8l-52.4-94l-51.3,94.2c-0.4,0.7-0.7,1.2-1,1.8
	s-0.8,1.2-1.2,1.7c-0.4,0.5-0.9,1.2-1.3,1.7s-0.9,1-1.4,1.6c-0.5,0.5-0.9,1-1.4,1.4h-0.1c-0.5,0.5-1,0.9-1.6,1.3
	c-0.5,0.4-1.2,0.9-1.7,1.3c-0.5,0.4-1.2,0.8-1.7,1.2c-0.7,0.4-1.2,0.7-1.8,1c-0.7,0.4-1.3,0.7-2,0.9c-0.7,0.3-1.3,0.5-2,0.8
	c-0.7,0.3-1.3,0.4-2,0.7c-0.7,0.1-1.4,0.4-2.1,0.5c-0.7,0.1-1.3,0.3-2.1,0.4c-0.7,0.1-1.4,0.1-2.1,0.3c-0.7,0-1.4,0.1-2.1,0.1
	C188.7,267.1,188.7,267.1,188.6,267.1z M351.3,232.9L351.3,232.9L351.3,232.9z M271.4,149.3L271.4,149.3L271.4,149.3z"/>
</svg>
