<?xml version="1.0" encoding="utf-8"?>
<!-- Generator: Adobe Illustrator 24.1.0, SVG Export Plug-In . SVG Version: 6.00 Build 0)  -->
<svg version="1.1" id="Layer_1" xmlns="http://www.w3.org/2000/svg" xmlns:xlink="http://www.w3.org/1999/xlink" x="0px" y="0px"
	 viewBox="0 0 535.1 382" style="enable-background:new 0 0 535.1 382;" xml:space="preserve">
<style type="text/css">
	.st0{fill:#FFFFFF;}
</style>
<path class="st0" d="M187.8,267.8c-0.7,0-1.3,0-2,0c-0.7,0-1.3-0.1-2.1-0.3c-0.7-0.1-1.4-0.3-2.1-0.4c-0.7-0.1-1.4-0.3-2.1-0.5
	c-0.7-0.1-1.3-0.4-2-0.7s-1.3-0.5-2-0.8s-1.3-0.5-2-0.9c-0.7-0.3-1.3-0.7-1.8-1.1s-1.2-0.8-1.8-1.2c-0.5-0.4-1.2-0.8-1.7-1.3
	c-0.5-0.4-1.1-0.9-1.6-1.3c-0.5-0.5-1.1-0.9-1.6-1.4c-0.5-0.5-0.9-1.1-1.4-1.6c-0.5-0.5-0.9-1.1-1.3-1.7c-0.4-0.5-0.8-1.2-1.2-1.7
	c-0.4-0.7-0.8-1.2-1.1-1.8L106.4,155L42,267.1l-31.6-18.2l68.3-118.7c0.4-0.7,0.7-1.2,1.1-1.8c0.4-0.5,0.8-1.2,1.2-1.7
	c0.4-0.5,0.9-1.1,1.3-1.6c0.4-0.5,0.9-1.1,1.4-1.6c0.5-0.5,1.1-0.9,1.6-1.4c0.5-0.5,1.1-0.9,1.7-1.3c0.5-0.4,1.2-0.8,1.7-1.2
	c0.5-0.4,1.2-0.8,1.8-1.1c0.7-0.4,1.2-0.7,1.8-1.1c0.7-0.3,1.3-0.5,2-0.9c0.7-0.3,1.3-0.5,2-0.8c0.7-0.3,1.3-0.4,2-0.7
	c0.7-0.1,1.3-0.4,2.1-0.5c0.7-0.1,1.4-0.3,2.1-0.4c0.7-0.1,1.4-0.1,2.1-0.1c0.7,0,1.4,0,2.1,0c0.7,0,1.4,0,2.1,0.1
	c0.7,0,1.4,0.1,2.1,0.3c0.7,0.1,1.4,0.3,2.1,0.4c0.7,0.1,1.3,0.3,2,0.5c0.7,0.1,1.3,0.4,2,0.7c0.7,0.3,1.3,0.5,2,0.8
	c0.7,0.3,1.3,0.5,1.8,0.9c0.7,0.3,1.2,0.7,1.8,1.1s1.2,0.8,1.7,1.2c0.7,0.4,1.2,0.8,1.7,1.3c0.5,0.4,1.1,0.9,1.6,1.3
	c0.5,0.5,1.1,0.9,1.6,1.4c0.5,0.5,0.9,1.1,1.4,1.6c0.4,0.5,0.9,1.1,1.3,1.6c0.4,0.5,0.8,1.2,1.2,1.7c0.4,0.5,0.8,1.2,1.1,1.8
	l53.5,95.9l51.5-94.9c0.3-0.7,0.7-1.2,1.1-1.8c0.4-0.5,0.8-1.2,1.2-1.7c0.4-0.7,0.9-1.2,1.3-1.7c0.4-0.5,0.9-1.1,1.4-1.6
	c0.4-0.5,0.9-0.9,1.4-1.4c0.5-0.5,1.1-0.9,1.6-1.3c0.5-0.4,1.2-0.9,1.7-1.3s1.2-0.8,1.7-1.2c0.7-0.4,1.2-0.7,1.8-1.1
	c0.7-0.4,1.3-0.7,2-0.9c0.7-0.3,1.3-0.5,2-0.8c0.7-0.3,1.3-0.4,2-0.7c0.7-0.1,1.3-0.4,2.1-0.5c0.7-0.1,1.4-0.3,2.1-0.4
	s1.4-0.1,2.1-0.3c0.8,0,1.4-0.1,2.1-0.1s1.4,0,2.1,0s1.4,0.1,2.1,0.3c0.7,0.1,1.4,0.3,2.1,0.4c0.7,0.1,1.4,0.3,2.1,0.5
	c0.7,0.1,1.4,0.4,2.1,0.7c0.7,0.3,1.3,0.5,2,0.8c0.7,0.3,1.3,0.5,2,0.9c0.7,0.4,1.3,0.7,1.8,1.1c0.7,0.4,1.2,0.8,1.8,1.2
	c0.7,0.4,1.2,0.8,1.7,1.3c0.5,0.4,1.1,0.9,1.6,1.3c0.5,0.4,1.1,0.9,1.6,1.4c0.5,0.5,0.9,1.1,1.4,1.6c0.4,0.5,0.9,1.1,1.3,1.6
	c0.4,0.7,0.9,1.2,1.2,1.7c0.4,0.5,0.8,1.2,1.1,1.8l52.8,94.8l49.9-94.7c0.3-0.7,0.7-1.2,1.1-1.8s0.8-1.2,1.2-1.7
	c0.4-0.5,0.8-1.2,1.3-1.7c0.4-0.5,0.9-1.1,1.4-1.6c0.5-0.5,0.9-1.1,1.4-1.4c0.5-0.5,1.1-0.9,1.6-1.4c0.5-0.4,1.1-0.8,1.7-1.3
	c0.5-0.4,1.2-0.8,1.8-1.2c0.5-0.4,1.2-0.7,1.8-1.1c0.7-0.4,1.3-0.7,2-0.9c0.5-0.3,1.3-0.5,2-0.8c0.7-0.3,1.3-0.5,2-0.7
	c0.7-0.3,1.3-0.4,2.1-0.5c0.7-0.1,1.3-0.3,2.1-0.4c0.7-0.1,1.4-0.3,2.1-0.3s1.3-0.1,2.1-0.1c0.7,0,1.4,0,2.1,0
	c0.8,0,1.4,0.1,2.1,0.1c0.7,0.1,1.3,0.1,2.1,0.3c0.8,0.1,1.4,0.3,2.1,0.4c0.7,0.1,1.3,0.4,2,0.5c0.7,0.3,1.3,0.4,2,0.7
	c0.7,0.3,1.3,0.5,2,0.8c0.7,0.3,1.3,0.7,1.8,0.9c0.7,0.4,1.2,0.7,1.8,1.1c0.5,0.4,1.2,0.8,1.7,1.2c0.5,0.4,1.1,0.8,1.7,1.3
	c0.5,0.5,1.1,0.9,1.6,1.4c0.5,0.5,1.1,1.1,1.4,1.4c0.5,0.5,0.9,1.1,1.3,1.6c0.4,0.5,0.9,1.2,1.3,1.7c0.4,0.5,0.8,1.2,1.2,1.8
	l70.8,118.3l-31.3,18.7l-66.8-111.3l-50,94.9c-0.4,0.7-0.7,1.3-1.1,1.8c-0.4,0.7-0.8,1.2-1.2,1.7c-0.4,0.5-0.8,1.2-1.3,1.7
	c-0.4,0.5-0.9,1.1-1.4,1.6c-0.5,0.5-1.1,1.1-1.4,1.4c-0.5,0.5-1.1,0.9-1.6,1.4c-0.5,0.4-1.2,0.9-1.7,1.3c-0.7,0.4-1.2,0.8-1.8,1.2
	s-1.2,0.8-1.8,1.1c-0.7,0.4-1.3,0.7-2,0.9s-1.3,0.5-2,0.8c-0.7,0.3-1.4,0.5-2.1,0.7c-0.7,0.3-1.4,0.4-2.1,0.5
	c-0.7,0.1-1.4,0.3-2.1,0.4c-0.7,0.1-1.3,0.1-2.1,0.3c-0.8,0-1.4,0.1-2.1,0.1s-1.4,0-2.1,0c-0.8,0-1.4-0.1-2.1-0.1
	c-0.7-0.1-1.4-0.1-2.1-0.4c-0.7-0.1-1.4-0.3-2.1-0.5c-0.7-0.1-1.3-0.4-2.1-0.7c-0.7-0.3-1.3-0.5-2-0.8s-1.3-0.5-2-0.9
	c-0.7-0.3-1.3-0.7-1.8-1.1c-0.5-0.4-1.2-0.8-1.8-1.2s-1.2-0.8-1.7-1.2c-0.5-0.4-1.1-0.9-1.6-1.3c-0.5-0.5-1.1-0.9-1.6-1.4
	c-0.5-0.5-1.1-1.1-1.4-1.6c-0.5-0.5-0.9-1.1-1.3-1.7c-0.4-0.5-0.8-1.2-1.2-1.7c-0.4-0.7-0.8-1.2-1.1-1.8L267.6,156l-51.8,95.1
	c-0.4,0.7-0.7,1.2-1.1,1.8c-0.4,0.7-0.8,1.2-1.2,1.7c-0.4,0.5-0.9,1.2-1.3,1.7c-0.4,0.5-0.9,1.1-1.4,1.6c-0.5,0.5-0.9,1.1-1.4,1.4
	h-0.1c-0.5,0.5-1.1,0.9-1.6,1.3c-0.5,0.4-1.2,0.9-1.7,1.3c-0.5,0.4-1.2,0.8-1.7,1.2c-0.7,0.4-1.2,0.7-1.8,1.1
	c-0.7,0.4-1.3,0.7-2,0.9s-1.3,0.5-2,0.8c-0.7,0.3-1.3,0.4-2,0.7c-0.7,0.1-1.4,0.4-2.1,0.5c-0.7,0.1-1.3,0.3-2.1,0.4
	c-0.7,0.1-1.4,0.1-2.1,0.3c-0.7,0-1.4,0.1-2.1,0.1C187.9,267.8,187.9,267.8,187.8,267.8z M352.2,233.3L352.2,233.3L352.2,233.3z
	 M271.4,148.9L271.4,148.9L271.4,148.9z"/>
</svg>
