<?xml version="1.0" encoding="utf-8"?>
<!-- Generator: Adobe Illustrator 24.1.0, SVG Export Plug-In . SVG Version: 6.00 Build 0)  -->
<svg version="1.1" id="Layer_1" xmlns="http://www.w3.org/2000/svg" xmlns:xlink="http://www.w3.org/1999/xlink" x="0px" y="0px"
	 viewBox="0 0 535.1 382" style="enable-background:new 0 0 535.1 382;" xml:space="preserve">
<style type="text/css">
	.st0{opacity:0.8;fill:#FFFFFF;enable-background:new    ;}
</style>
<path class="st0" d="M486.5,278.1L417,148.6l-62.3,116.2c-2.6,4.9-7.7,7.9-13.2,7.9c0,0,0,0,0,0c-5.5,0-10.6-3-13.2-7.9l-62.4-116.2
	l-62.3,116.2c-2.6,4.9-7.7,7.9-13.2,7.9c0,0,0,0,0,0c-5.5,0-10.6-3-13.2-7.9l-62.4-116.2L45.4,278.1L19,263.9l82.6-154.1
	c2.6-4.9,7.7-7.9,13.2-7.9c0,0,0,0,0,0c5.5,0,10.6,3,13.2,7.9l62.4,116.2l62.3-116.2c2.6-4.9,7.7-7.9,13.2-7.9c0,0,0,0,0,0
	c5.5,0,10.6,3,13.2,7.9l62.4,116.2l62.3-116.2c2.6-4.9,7.7-7.9,13.2-7.9c0,0,0,0,0,0c5.5,0,10.6,3,13.2,7.9l82.7,154.1L486.5,278.1z
	"/>
</svg>
